<?xml version="1.0" encoding="utf-8"?>
<!-- Generated by IcoMoon.io -->
<!DOCTYPE svg PUBLIC "-//W3C//DTD SVG 1.1//EN" "http://www.w3.org/Graphics/SVG/1.1/DTD/svg11.dtd">
<svg version="1.1" xmlns="http://www.w3.org/2000/svg" xmlns:xlink="http://www.w3.org/1999/xlink" width="430" height="190" viewBox="0 0 430 190">
<svg id="icon-stats" width="30" height="30" viewBox="0 0 30 30" x="0" y="0">
<path fill="#fe504f" d="M5.623 4.688h-0.925v21.563h18.75v-0.903l-17.809-0.046-0.016-20.614zM7.51 23.438h4.688v-10.195l-4.688 4.688v5.508zM13.135 23.438h4.687v-9.258l-1.875 1.875-2.813-2.813v10.195zM18.76 23.438h4.688v-14.238l-4.688 4.688v9.55zM12.55 10.375l3.394 3.375 6.701-6.668 1.719 1.729-0.041-4.124-4.139 0.022 1.61 1.614-5.852 5.869-3.458-3.472-5.272 5.254 0.88 0.855 4.458-4.454z"></path>
</svg>
<svg id="icon-anger" width="30" height="30" viewBox="0 0 30 30" x="80" y="0">
 <path fill="#D80027" d="m27.689391,26.445215c0,1.091835 -0.83593,1.976785 -1.865426,1.976785l-20.513787,0c-1.030033,0 -1.865426,-0.884949 -1.865426,-1.976785s0.835393,-1.977353 1.865426,-1.977353l20.513787,0c1.029496,0 1.865426,0.885518 1.865426,1.977353zm1.090623,-22.343692c0.658985,0.698525 0.658985,1.831282 -0.000536,2.529807l-5.069733,5.37449c-0.658985,0.698525 -1.72816,0.698525 -2.386608,0s-0.658985,-1.831282 0,-2.529807l5.070269,-5.373922c0.658985,-0.699093 1.727087,-0.699093 2.386608,-0.000568zm0.10992,9.253603c0,1.281102 -0.97963,2.319511 -2.187143,2.319511s-2.187143,-1.038409 -2.187143,-2.319511c0,-1.279965 0.97963,-2.318942 2.187143,-2.318942c1.206977,0 2.187143,1.038409 2.187143,2.318942zm-26.537949,-6.723796c-0.658985,-0.698525 -0.658985,-1.831282 -0.000536,-2.529807c0.658985,-0.698525 1.727624,-0.698525 2.386608,0l5.070269,5.373922c0.658985,0.698525 0.658985,1.831282 0,2.529807c-0.658985,0.698525 -1.72816,0.698525 -2.386608,0l-5.069733,-5.373922zm2.076687,9.043307c-1.206977,0 -2.187143,-1.038409 -2.187143,-2.319511c0,-1.279965 0.97963,-2.318942 2.187143,-2.318942s2.187143,1.038409 2.187143,2.318942c0,1.281102 -0.97963,2.319511 -2.187143,2.319511z"/>
</svg>
<svg id="icon-disgust" width="30" height="30" viewBox="0 0 22 30" x="160" y="0">
  <path fill="#D80027" d="m29.047999,5.177519c0,1.012624 -0.742453,1.832978 -1.660097,1.832978l-2.628926,0c-0.569372,1.063896 -1.615771,1.779958 -2.814671,1.779958c-1.806265,0 -3.272174,-1.616237 -3.273229,-3.611771c0,-0.000583 0,-0.000583 0,-0.001165c0,0 0,0 0,-0.000583l0,-0.000583c0,-1.994369 1.466436,-3.612354 3.273229,-3.612354c1.199428,0 2.245827,0.716062 2.815199,1.780541l2.628399,0c0.917644,-0.000583 1.660097,0.819189 1.660097,1.832978zm-24.757921,1.832978l-2.629454,0c-0.917116,0 -1.660624,-0.821519 -1.660624,-1.832978c0,-1.012624 0.743508,-1.833561 1.660624,-1.833561l2.629454,0c0.569372,-1.063896 1.616299,-1.779958 2.815199,-1.779958c1.806793,0 3.272174,1.617985 3.272174,3.612354l0,0.000583c0,0.000583 0,0.000583 0,0.000583c0,0.000583 0,0.000583 0,0.001165c-0.001583,1.995534 -1.465909,3.611771 -3.272174,3.611771c-1.1989,-0.000583 -2.244772,-0.716062 -2.815199,-1.779958zm22.548504,17.51875c-0.201048,0.47485 -2.074857,4.655275 -5.6209,4.939602c-0.123478,0.01107 -0.249595,0.015149 -0.373601,0.015149c-2.22472,0 -4.385062,-1.59701 -6.425619,-4.753741c-1.032152,-1.596427 -2.615206,-3.483591 -4.333876,-3.483591c-0.025857,0 -0.051185,0 -0.076514,0.000583c-1.938714,0.062925 -3.685879,2.475628 -4.195623,3.399691c-0.359881,0.650806 -1.207343,0.907167 -1.893861,0.565741c-0.68599,-0.341426 -0.954054,-1.146048 -0.596812,-1.799768c0.104482,-0.191688 2.607819,-4.698973 6.579175,-4.836476c2.493311,-0.0839 4.814597,1.512527 6.908979,4.75141c1.510234,2.33696 2.991973,3.581474 4.171877,3.477764c1.457466,-0.11711 2.821004,-2.258304 3.25265,-3.277337c0.29181,-0.684017 1.108138,-1.01612 1.828428,-0.73995c0.719235,0.278501 1.066451,1.057487 0.775697,1.740921z"/>
 </svg>
<svg id="icon-contempt" width="30" height="30" viewBox="0 0 30 30" x="240" y="0">
   <path  fill="#D80027" d="m-1,3.017419c0,-1.157062 0.708219,-2.095095 1.581806,-2.095095l6.721794,-0.000666c0.013571,0 0.027143,0.00466 0.040714,0.005326c0.809249,-0.011983 1.621514,0.386797 2.238252,1.20433c1.217895,1.613096 1.217895,4.227471 0.001508,5.839236c-1.21689,1.611099 -3.191256,1.611099 -4.408649,-0.001331c-0.59613,-0.790237 -0.895703,-1.821474 -0.907766,-2.857371l-3.685853,0c-0.873587,0.000666 -1.581806,-0.937367 -1.581806,-2.094429zm19.528539,0.06258c0,-1.157062 0.708721,-2.095095 1.581806,-2.095095l6.721794,-0.000666c0.014074,0 0.027143,0.00466 0.040714,0.005326c0.808746,-0.011983 1.622017,0.386797 2.238252,1.20433c1.217895,1.613096 1.217895,4.227471 0.001508,5.839236c-1.21689,1.611099 -3.191256,1.611099 -4.408649,-0.001331c-0.597135,-0.790237 -0.895703,-1.821474 -0.908269,-2.857371l-3.685853,0c-0.872582,0.000666 -1.581303,-0.937367 -1.581303,-2.094429zm-14.665002,17.084308c4.956023,0.207046 16.565983,1.270239 17.324968,6.664758c0.12767,0.902748 -0.323197,1.772875 -1.005278,1.941308c-0.076904,0.018641 -0.155316,0.028627 -0.231717,0.028627c-0.593114,0 -1.120383,-0.559224 -1.233979,-1.359448c-0.002011,-0.016644 -0.544861,-1.794179 -7.251576,-3.05776c-3.838153,-0.722997 -7.643635,-0.888102 -7.681835,-0.890099c-0.693642,-0.028627 -1.238,-0.796895 -1.216387,-1.715621c0.021613,-0.901417 0.579543,-1.611765 1.255593,-1.611765c0.013069,-0.001331 0.026137,-0.000666 0.040211,0z"/>
</svg>
<svg id="icon-fear" width="30" height="30" viewBox="0 0 30 30" x="320" y="0">
 <path fill="#D80027" d="m1.738415,7.624736l1.095226,-1.0758l-1.095849,-1.077023c-0.767717,-0.754099 -0.806943,-1.974848 -0.089038,-2.779098c0.015566,-0.021406 0.048566,-0.059325 0.085302,-0.096021c0.795113,-0.781621 2.15434,-0.776729 2.937623,-0.006728l1.095849,1.0758l1.095849,-1.076411c0.745925,-0.733305 2.03417,-0.771836 2.829283,-0.088682c0.025528,0.018348 0.066,0.052597 0.103981,0.089293c0.391642,0.384695 0.607698,0.89599 0.608321,1.4397c0,0.544322 -0.215434,1.056228 -0.607698,1.440923l-1.095849,1.076411l1.094604,1.0758c0.392264,0.384695 0.608321,0.896602 0.608321,1.440312c0,0.544322 -0.215434,1.056228 -0.607698,1.441535c-0.783283,0.770613 -2.149358,0.771224 -2.933887,0l-1.094604,-1.075188l-1.094604,1.075188c-0.392887,0.385306 -0.913415,0.597531 -1.466943,0.597531c-0.554151,0 -1.075302,-0.212224 -1.466943,-0.597531c-0.809434,-0.79263 -0.809434,-2.084935 -0.001245,-2.880011zm17.506811,-0.009174l1.095226,-1.0758l-1.095849,-1.077023c-0.767094,-0.754099 -0.807566,-1.974848 -0.089038,-2.779098c0.014943,-0.021406 0.048566,-0.059325 0.085302,-0.096021c0.795113,-0.781621 2.153717,-0.776729 2.937623,-0.006728l1.095849,1.0758l1.096472,-1.076411c0.745302,-0.733305 2.03417,-0.771836 2.82866,-0.088682c0.025528,0.018348 0.066,0.052597 0.104604,0.089293c0.391642,0.384695 0.607698,0.89599 0.608321,1.4397c0,0.544322 -0.215434,1.056228 -0.608321,1.440923l-1.095849,1.076411l1.094604,1.0758c0.392887,0.384695 0.608943,0.896602 0.608943,1.440312c0,0.544322 -0.216057,1.056228 -0.607698,1.441535c-0.783283,0.770613 -2.149981,0.771224 -2.934509,0l-1.094604,-1.075188l-1.094604,1.075188c-0.392887,0.385306 -0.913415,0.598142 -1.466321,0.598142c-0.554774,0 -1.075925,-0.212224 -1.466943,-0.598142c-0.811302,-0.792018 -0.811302,-2.084935 -0.001868,-2.880011zm-19.245226,20.34784l0,-2.510607c0,-0.337602 0.278943,-0.611597 0.622642,-0.611597c0.789509,0 2.371642,-0.596919 3.053434,-1.53144c0.117057,-0.160238 0.305717,-0.255036 0.506208,-0.255036c0,0 0,0 0.000623,0c0.201113,0 0.389151,0.095409 0.506208,0.256259c0.696736,0.958373 1.83617,1.530828 3.04783,1.530828c1.213528,0 2.352962,-0.572455 3.048453,-1.530216c0.117057,-0.16085 0.305094,-0.256259 0.506208,-0.256259c0,0 0,0 0.000623,0c0.200491,0 0.389151,0.094798 0.506208,0.255036c0.699849,0.958984 1.841151,1.53144 3.052189,1.53144c1.212906,0 2.352962,-0.572455 3.050943,-1.530828c0.233491,-0.321089 0.778925,-0.321089 1.013038,0c0.697981,0.958373 1.838038,1.530828 3.049075,1.530828c1.213528,0 2.352962,-0.572455 3.050943,-1.530828c0.117057,-0.160238 0.305094,-0.255648 0.506208,-0.255648l0,0c0.199868,0 0.389151,0.094798 0.506208,0.255036c0.68117,0.935132 2.262057,1.53144 3.050321,1.53144c0.343698,0 0.622642,0.273996 0.622642,0.611597l0,2.509995c0,0.337602 -0.278943,0.611597 -0.622642,0.611597c-1.037321,0 -2.550962,-0.571232 -3.541585,-1.468445c-0.928981,0.930239 -2.217226,1.468445 -3.572717,1.468445c-1.347396,0 -2.629415,-0.532701 -3.557151,-1.452543c-0.927113,0.919842 -2.208509,1.452543 -3.556528,1.452543c-1.346774,0 -2.628792,-0.532701 -3.557774,-1.452543c-0.926491,0.919842 -2.207887,1.452543 -3.556528,1.452543c-1.354868,0 -2.642491,-0.538817 -3.570849,-1.468445c-0.991245,0.897825 -2.505509,1.468445 -3.543453,1.468445c-0.34183,0 -0.620774,-0.273996 -0.620774,-0.611597z"/>
</svg>
<svg id="icon-surprise" width="30" height="30" viewBox="0 0 30 30" x="0" y="80">
<path fill="#D80027" d="m6.919099,11.202401c-1.361144,0 -2.465491,-1.216813 -2.465491,-2.718001c0,-1.499874 1.104347,-2.717124 2.465491,-2.717124c1.361144,0 2.465491,1.216813 2.465491,2.717124c0,1.501188 -1.104347,2.718001 -2.465491,2.718001zm-2.831397,-5.686638c-0.12659,0.533259 -0.76376,0.909652 -1.483514,0.909652c-0.084996,0 -0.171198,-0.005258 -0.258003,-0.016212c-0.819821,-0.102971 -1.370186,-0.669532 -1.229129,-1.265888c0.305022,-1.284292 1.912715,-3.651314 5.925618,-3.411632c0.829466,0.049514 1.44614,0.578391 1.378023,1.18132c-0.067515,0.602929 -0.784255,1.05162 -1.625175,1.002107c-2.227984,-0.136711 -2.665624,1.422755 -2.707821,1.600654zm22.246689,2.969075c0,1.501188 -1.104347,2.718001 -2.465491,2.718001s-2.465491,-1.216813 -2.465491,-2.718001c0,-1.499874 1.104347,-2.717124 2.465491,-2.717124s2.465491,1.216374 2.465491,2.717124zm3.336551,-3.341524c0.141057,0.596356 -0.409308,1.162917 -1.229129,1.265888c-0.086805,0.010516 -0.173006,0.016212 -0.258003,0.016212c-0.719152,0 -1.356924,-0.376392 -1.483514,-0.909652c-0.042197,-0.177899 -0.479836,-1.736488 -2.707821,-1.600216c-0.841522,0.049514 -1.55766,-0.399178 -1.624572,-1.002107c-0.068117,-0.602929 0.548557,-1.131807 1.37742,-1.18132c4.012904,-0.239682 5.620597,2.126902 5.925618,3.411194zm-6.823805,17.143167c0,3.586026 -3.469772,6.50252 -7.735856,6.50252c-4.266686,0 -7.735856,-2.916494 -7.735856,-6.50252c0,-3.584711 3.469169,-6.499891 7.735856,-6.499891c4.266084,0 7.735856,2.915618 7.735856,6.499891z"/>
</svg>
<svg id="icon-sad" width="30" height="30" viewBox="0 0 30 30" x="0" y="160">
 <path fill="#D80027" d="m28.224395,25.853172c0.369762,0.800088 -0.023602,1.729052 -0.878325,2.075178c-0.854723,0.346652 -1.845999,-0.022093 -2.21576,-0.822181c-1.626277,-3.518071 -5.468315,-5.792613 -9.789694,-5.792613c-4.421406,0 -8.287045,2.272438 -9.847013,5.788931c-0.269173,0.60651 -0.896869,0.973151 -1.557158,0.974203c-0.215788,0 -0.434386,-0.038926 -0.64624,-0.120986c-0.85978,-0.335079 -1.267192,-1.258783 -0.910356,-2.063079c2.084827,-4.699002 7.172703,-7.73418 12.960766,-7.73418c5.667244,-0.000526 10.724775,3.019923 12.883779,7.694728zm-24.627366,-17.853893l-1.452635,0.438181c-0.929462,0.280373 -1.926357,-0.19726 -2.225876,-1.067309c-0.299518,-0.870049 0.211292,-1.802696 1.140754,-2.083068l7.152473,-2.158816c0.929462,-0.279321 1.925795,0.198312 2.225314,1.068361c0.269735,0.782729 -0.120819,1.612274 -0.878886,1.975759c1.301471,1.278246 1.284613,3.300295 -0.055071,4.554345c-1.360476,1.273512 -3.567807,1.273512 -4.928845,-0.001052c-0.795156,-0.743803 -1.111533,-1.757457 -0.977227,-2.7264zm26.509891,-0.728548c-0.298956,0.870049 -1.296414,1.348208 -2.225876,1.067309l-1.452635,-0.438181c0.134306,0.968942 -0.182071,1.982597 -0.976103,2.7264c-1.362162,1.274564 -3.569493,1.274564 -4.928845,0.001052c-1.339684,-1.254049 -1.356542,-3.276624 -0.055071,-4.554345c-0.75863,-0.362959 -1.148621,-1.19303 -0.878886,-1.975759c0.299518,-0.870049 1.295852,-1.348208 2.225314,-1.068361l7.153035,2.158816c0.927776,0.279847 1.439149,1.212493 1.139068,2.083068z"/>
</svg>
<svg id="icon-happy" width="30" height="30" viewBox="0 0 30 30" x="80" y="160">
 <path fill="#D80027" d="m27.428111,15.383066c-0.439932,0 -0.933487,0.063393 -1.505289,0.19828c-3.435736,1.293112 -7.003889,1.949439 -10.604326,1.949439c-6.116365,0 -10.263981,-1.920841 -10.305019,-1.939907c-0.019151,-0.009533 -0.039397,-0.015729 -0.059642,-0.020972c-0.46346,-0.10772 -0.995866,-0.173495 -1.46042,-0.183028l0,0.002383c-0.01751,-0.003336 -0.035019,-0.00429 -0.052529,-0.00429c-0.004377,0 -0.05034,-0.001907 -0.055265,-0.001907c-0.025717,0 -0.050888,0.00429 -0.075511,0.010009c-0.846486,0.034794 -1.500912,0.313626 -1.945221,0.828393c-1.147981,1.329336 -0.445951,3.763514 -0.410931,3.881243c2.636855,7.055636 11.303621,7.60329 13.897249,7.60329c0.367704,0 0.589312,-0.011439 0.5915,-0.013346c0.031736,0.001907 0.252797,0.013346 0.621048,0.013346c2.593628,0 11.260394,-0.547654 13.902173,-7.617112c0.031189,-0.104383 0.745805,-2.573355 -0.431724,-3.898879c-0.476046,-0.535262 -1.184095,-0.806944 -2.106091,-0.806944zm-0.047057,4.248729c-2.117035,5.565196 -9.215586,5.997028 -11.340829,5.997028c-0.283986,0 -0.451423,-0.008579 -0.4558,-0.008579c-0.041586,-0.00286 -0.083718,-0.00429 -0.126398,-0.00429c-0.042133,0 -0.083718,0.00143 -0.121474,0.003813c-0.024076,0.000953 -0.189871,0.009056 -0.462913,0.009056c-2.125243,0 -9.223247,-0.431832 -11.333168,-5.976533c-0.201909,-0.734495 -0.224343,-1.825514 0.048152,-2.130084c0.036661,-0.040991 0.184946,-0.057673 0.29876,-0.060533c0.17838,0.003813 0.476593,0.026215 0.74471,0.078168c1.124453,0.483308 5.079461,1.986617 10.69078,1.986617c3.713156,0 7.388009,-0.66729 10.882293,-1.971365c0.294382,-0.062916 0.552651,-0.09485 0.767145,-0.09485c0.144455,0 0.311345,0.015729 0.352383,0.061009c0.274684,0.306477 0.252249,1.396542 0.056359,2.110542zm-22.751697,-14.470178c0,-1.632 1.519516,-2.955617 3.393056,-2.955617c1.872993,0 3.392509,1.323617 3.392509,2.955617c0,1.632953 -1.519516,2.95657 -3.392509,2.95657c-1.874088,-0.000477 -3.393056,-1.324094 -3.393056,-2.95657zm15.384481,0c0,-1.632 1.521157,-2.955617 3.39415,-2.955617s3.393056,1.323617 3.393056,2.955617c0,1.632953 -1.519516,2.95657 -3.393056,2.95657c-1.872446,-0.000477 -3.39415,-1.324094 -3.39415,-2.95657z"/> 
</svg>
</svg>
